<svg width="182" height="142" viewBox="0 0 182 142" fill="none" xmlns="http://www.w3.org/2000/svg">
<rect width="181.382" height="142" rx="8" fill="#011423" fill-opacity="0.19"/>
<rect x="67.1519" y="67.7725" width="48.0787" height="27.6912" rx="7.5" fill="#010C15" stroke="#1E2D3D"/>
<path d="M91.1909 78.6181L95.4409 84.6181H86.9409L91.1909 78.6181Z" fill="white"/>
<rect x="115.23" y="128.964" width="48.0787" height="27.6912" rx="7.5" transform="rotate(-180 115.23 128.964)" fill="#010C15" stroke="#1E2D3D"/>
<path d="M91.1909 118.118L86.9409 112.118L95.4409 112.118L91.1909 118.118Z" fill="white"/>
<rect x="168.691" y="128.964" width="48.0787" height="27.6912" rx="7.5" transform="rotate(-180 168.691 128.964)" fill="#010C15" stroke="#1E2D3D"/>
<path d="M147.651 115.118L141.651 119.368L141.651 110.868L147.651 115.118Z" fill="white"/>
<rect x="61.7695" y="128.964" width="48.0787" height="27.6912" rx="7.5" transform="rotate(-180 61.7695 128.964)" fill="#010C15" stroke="#1E2D3D"/>
<path d="M34.73 115.118L40.73 110.868L40.73 119.368L34.73 115.118Z" fill="white"/>
<path d="M15.6424 31.1542L14.5644 30.6712L20.5424 18.3442L21.6064 18.8552L15.6424 31.1542ZM22.6424 31.1542L21.5644 30.6712L27.5424 18.3442L28.6064 18.8552L22.6424 31.1542ZM41.0555 22.3132V27.5072C41.0555 27.9738 41.1512 28.3098 41.3425 28.5152C41.5338 28.7158 41.8255 28.8162 42.2175 28.8162C42.5955 28.8162 42.9548 28.7065 43.2955 28.4872C43.6362 28.2678 43.9022 28.0065 44.0935 27.7032V22.3132H45.4375V29.6912H44.2825L44.1845 28.7182C43.9045 29.0868 43.5522 29.3715 43.1275 29.5722C42.7028 29.7682 42.2735 29.8662 41.8395 29.8662C41.1255 29.8662 40.5912 29.6725 40.2365 29.2852C39.8865 28.8978 39.7115 28.3612 39.7115 27.6752V22.3132H41.0555ZM50.689 28.7952C51.2257 28.7952 51.648 28.6972 51.956 28.5012C52.2687 28.3052 52.425 28.0392 52.425 27.7032C52.425 27.4885 52.383 27.3042 52.299 27.1502C52.2197 26.9962 52.0517 26.8562 51.795 26.7302C51.543 26.6042 51.1604 26.4758 50.647 26.3452C50.1477 26.2192 49.7114 26.0722 49.338 25.9042C48.9647 25.7362 48.6754 25.5168 48.47 25.2462C48.2694 24.9755 48.169 24.6255 48.169 24.1962C48.169 23.7762 48.2857 23.4122 48.519 23.1042C48.757 22.7962 49.0907 22.5582 49.52 22.3902C49.954 22.2222 50.458 22.1382 51.032 22.1382C51.6387 22.1382 52.166 22.2198 52.614 22.3832C53.0667 22.5418 53.4494 22.7378 53.762 22.9712L53.188 23.8462C52.9034 23.6548 52.5907 23.4985 52.25 23.3772C51.914 23.2558 51.5174 23.1952 51.06 23.1952C50.514 23.1952 50.1244 23.2792 49.891 23.4472C49.6624 23.6105 49.548 23.8275 49.548 24.0982C49.548 24.2988 49.604 24.4668 49.716 24.6022C49.8327 24.7328 50.031 24.8542 50.311 24.9662C50.591 25.0782 50.9784 25.2018 51.473 25.3372C51.9537 25.4678 52.3737 25.6218 52.733 25.7992C53.0924 25.9765 53.37 26.2098 53.566 26.4992C53.7667 26.7838 53.867 27.1595 53.867 27.6262C53.867 28.1535 53.7154 28.5828 53.412 28.9142C53.1087 29.2408 52.7144 29.4812 52.229 29.6352C51.7484 29.7892 51.235 29.8662 50.689 29.8662C50.017 29.8662 49.4384 29.7682 48.953 29.5722C48.4724 29.3762 48.0687 29.1358 47.742 28.8512L48.484 27.9972C48.7734 28.2352 49.1047 28.4288 49.478 28.5782C49.8514 28.7228 50.255 28.7952 50.689 28.7952ZM57.5856 26.4572C57.6136 26.9985 57.7232 27.4418 57.9146 27.7872C58.1059 28.1278 58.3556 28.3798 58.6636 28.5432C58.9716 28.7018 59.3122 28.7812 59.6856 28.7812C60.0542 28.7812 60.3926 28.7252 60.7006 28.6132C61.0086 28.5012 61.3212 28.3378 61.6386 28.1232L62.2476 28.9702C61.9022 29.2455 61.5032 29.4648 61.0506 29.6282C60.5979 29.7868 60.1289 29.8662 59.6436 29.8662C58.9062 29.8662 58.2786 29.7052 57.7606 29.3832C57.2472 29.0565 56.8552 28.6038 56.5846 28.0252C56.3186 27.4465 56.1856 26.7745 56.1856 26.0092C56.1856 25.2672 56.3186 24.6045 56.5846 24.0212C56.8552 23.4378 57.2356 22.9782 57.7256 22.6422C58.2156 22.3062 58.7989 22.1382 59.4756 22.1382C60.1102 22.1382 60.6562 22.2852 61.1136 22.5792C61.5756 22.8732 61.9302 23.2932 62.1776 23.8392C62.4249 24.3805 62.5486 25.0292 62.5486 25.7852C62.5486 25.9112 62.5462 26.0325 62.5416 26.1492C62.5369 26.2658 62.5299 26.3685 62.5206 26.4572H57.5856ZM59.4896 23.1882C58.9669 23.1882 58.5306 23.3748 58.1806 23.7482C57.8352 24.1215 57.6369 24.6978 57.5856 25.4772H61.2536C61.2396 24.7305 61.0762 24.1635 60.7636 23.7762C60.4556 23.3842 60.0309 23.1882 59.4896 23.1882ZM79.6106 22.3132L76.4326 25.6242L79.9606 29.6912H78.2596L74.8226 25.6592L77.9516 22.3132H79.6106ZM74.6966 19.1842V29.6912H73.3526V19.3452L74.6966 19.1842ZM82.7692 26.4572C82.7972 26.9985 82.9068 27.4418 83.0982 27.7872C83.2895 28.1278 83.5392 28.3798 83.8472 28.5432C84.1552 28.7018 84.4958 28.7812 84.8692 28.7812C85.2378 28.7812 85.5762 28.7252 85.8842 28.6132C86.1922 28.5012 86.5048 28.3378 86.8222 28.1232L87.4312 28.9702C87.0858 29.2455 86.6868 29.4648 86.2342 29.6282C85.7815 29.7868 85.3125 29.8662 84.8272 29.8662C84.0898 29.8662 83.4622 29.7052 82.9442 29.3832C82.4308 29.0565 82.0388 28.6038 81.7682 28.0252C81.5022 27.4465 81.3692 26.7745 81.3692 26.0092C81.3692 25.2672 81.5022 24.6045 81.7682 24.0212C82.0388 23.4378 82.4192 22.9782 82.9092 22.6422C83.3992 22.3062 83.9825 22.1382 84.6592 22.1382C85.2938 22.1382 85.8398 22.2852 86.2972 22.5792C86.7592 22.8732 87.1138 23.2932 87.3612 23.8392C87.6085 24.3805 87.7322 25.0292 87.7322 25.7852C87.7322 25.9112 87.7298 26.0325 87.7252 26.1492C87.7205 26.2658 87.7135 26.3685 87.7042 26.4572H82.7692ZM84.6732 23.1882C84.1505 23.1882 83.7142 23.3748 83.3642 23.7482C83.0188 24.1215 82.8205 24.6978 82.7692 25.4772H86.4372C86.4232 24.7305 86.2598 24.1635 85.9472 23.7762C85.6392 23.3842 85.2145 23.1882 84.6732 23.1882ZM96.3577 22.3132L93.7817 29.7332C93.6044 30.2558 93.3757 30.7272 93.0957 31.1472C92.8157 31.5672 92.454 31.9102 92.0107 32.1762C91.572 32.4468 91.019 32.6148 90.3517 32.6802L90.1627 31.6372C90.6667 31.5578 91.0657 31.4365 91.3597 31.2732C91.6584 31.1098 91.8917 30.8975 92.0597 30.6362C92.2324 30.3748 92.3864 30.0598 92.5217 29.6912H92.0667L89.5257 22.3132H90.9607L92.9697 28.7112L94.9717 22.3132H96.3577ZM99.8172 23.2372C100.079 22.8918 100.384 22.6235 100.734 22.4322C101.089 22.2362 101.474 22.1382 101.889 22.1382C102.543 22.1382 103.072 22.2992 103.478 22.6212C103.884 22.9385 104.181 23.3865 104.367 23.9652C104.554 24.5392 104.647 25.2158 104.647 25.9952C104.647 26.7418 104.535 27.4068 104.311 27.9902C104.087 28.5735 103.758 29.0332 103.324 29.3692C102.89 29.7005 102.356 29.8662 101.721 29.8662C100.877 29.8662 100.216 29.5582 99.7402 28.9422L99.6562 29.6912H98.4732V19.3452L99.8172 19.1842V23.2372ZM101.392 28.8092C101.971 28.8092 102.417 28.5805 102.729 28.1232C103.047 27.6612 103.205 26.9518 103.205 25.9952C103.205 25.3558 103.142 24.8308 103.016 24.4202C102.89 24.0048 102.704 23.6968 102.456 23.4962C102.214 23.2955 101.915 23.1952 101.56 23.1952C101.178 23.1952 100.839 23.3118 100.545 23.5452C100.251 23.7738 100.009 24.0352 99.8172 24.3292V27.8992C100.004 28.1792 100.233 28.4008 100.503 28.5642C100.774 28.7275 101.07 28.8092 101.392 28.8092ZM109.745 22.1382C110.449 22.1382 111.04 22.2968 111.516 22.6142C111.996 22.9315 112.358 23.3795 112.601 23.9582C112.848 24.5322 112.972 25.2112 112.972 25.9952C112.972 26.7558 112.846 27.4278 112.594 28.0112C112.346 28.5898 111.982 29.0448 111.502 29.3762C111.021 29.7028 110.431 29.8662 109.731 29.8662C109.031 29.8662 108.438 29.7075 107.953 29.3902C107.472 29.0728 107.108 28.6248 106.861 28.0462C106.613 27.4675 106.49 26.7885 106.49 26.0092C106.49 25.2438 106.613 24.5718 106.861 23.9932C107.113 23.4098 107.481 22.9548 107.967 22.6282C108.452 22.3015 109.045 22.1382 109.745 22.1382ZM109.745 23.2092C109.138 23.2092 108.681 23.4378 108.373 23.8952C108.065 24.3478 107.911 25.0525 107.911 26.0092C107.911 26.9565 108.062 27.6588 108.366 28.1162C108.669 28.5688 109.124 28.7952 109.731 28.7952C110.337 28.7952 110.792 28.5688 111.096 28.1162C111.399 27.6588 111.551 26.9518 111.551 25.9952C111.551 25.0432 111.399 24.3408 111.096 23.8882C110.797 23.4355 110.347 23.2092 109.745 23.2092ZM120.701 27.9972C120.701 28.2912 120.748 28.5058 120.841 28.6412C120.935 28.7718 121.082 28.8698 121.282 28.9352L120.967 29.8592C120.631 29.8172 120.34 29.7168 120.092 29.5582C119.845 29.3995 119.661 29.1568 119.539 28.8302C119.273 29.1708 118.937 29.4298 118.531 29.6072C118.125 29.7798 117.684 29.8662 117.208 29.8662C116.466 29.8662 115.881 29.6562 115.451 29.2362C115.022 28.8162 114.807 28.2632 114.807 27.5772C114.807 26.8072 115.106 26.2168 115.703 25.8062C116.305 25.3955 117.169 25.1902 118.293 25.1902H119.364V24.6302C119.364 24.1215 119.213 23.7598 118.909 23.5452C118.611 23.3305 118.193 23.2232 117.656 23.2232C117.414 23.2232 117.124 23.2535 116.788 23.3142C116.452 23.3748 116.095 23.4705 115.717 23.6012L115.374 22.6212C115.832 22.4485 116.268 22.3248 116.683 22.2502C117.103 22.1755 117.495 22.1382 117.859 22.1382C118.811 22.1382 119.523 22.3552 119.994 22.7892C120.466 23.2185 120.701 23.8088 120.701 24.5602V27.9972ZM117.586 28.8582C117.932 28.8582 118.263 28.7695 118.58 28.5922C118.898 28.4148 119.159 28.1675 119.364 27.8502V26.0652H118.384C117.605 26.0652 117.052 26.1982 116.725 26.4642C116.399 26.7255 116.235 27.0848 116.235 27.5422C116.235 27.9715 116.347 28.2982 116.571 28.5222C116.795 28.7462 117.134 28.8582 117.586 28.8582ZM123.727 29.6912V28.6972H124.847V23.3072H123.727V22.3132H125.876L126.121 24.0422C126.401 23.4308 126.744 22.9618 127.15 22.6352C127.56 22.3038 128.092 22.1382 128.746 22.1382C128.96 22.1382 129.149 22.1545 129.313 22.1872C129.481 22.2198 129.651 22.2618 129.824 22.3132L129.425 23.4892C129.271 23.4425 129.131 23.4098 129.005 23.3912C128.879 23.3725 128.734 23.3632 128.571 23.3632C128.015 23.3632 127.539 23.5638 127.143 23.9652C126.746 24.3665 126.429 24.9568 126.191 25.7362V28.6972H127.689V29.6912H123.727ZM128.578 24.9032V23.2092L128.732 22.3132H129.824L129.614 24.9032H128.578ZM136.433 19.1842L137.777 19.3452V29.6912H136.594L136.482 28.7462C136.221 29.1195 135.913 29.3995 135.558 29.5862C135.204 29.7728 134.816 29.8662 134.396 29.8662C133.762 29.8662 133.237 29.7052 132.821 29.3832C132.411 29.0565 132.105 28.6038 131.904 28.0252C131.704 27.4465 131.603 26.7745 131.603 26.0092C131.603 25.2625 131.718 24.5998 131.946 24.0212C132.18 23.4378 132.511 22.9782 132.94 22.6422C133.374 22.3062 133.897 22.1382 134.508 22.1382C134.914 22.1382 135.276 22.2105 135.593 22.3552C135.911 22.4952 136.191 22.7028 136.433 22.9782V19.1842ZM134.858 23.1952C134.284 23.1952 133.839 23.4262 133.521 23.8882C133.204 24.3502 133.045 25.0572 133.045 26.0092C133.045 26.6392 133.111 27.1618 133.241 27.5772C133.372 27.9925 133.561 28.3005 133.808 28.5012C134.056 28.7018 134.359 28.8022 134.718 28.8022C135.106 28.8022 135.439 28.6902 135.719 28.4662C136.004 28.2422 136.242 27.9832 136.433 27.6892V24.0842C136.242 23.8042 136.011 23.5872 135.74 23.4332C135.474 23.2745 135.18 23.1952 134.858 23.1952ZM15.6424 49.1542L14.5644 48.6712L20.5424 36.3442L21.6064 36.8552L15.6424 49.1542ZM22.6424 49.1542L21.5644 48.6712L27.5424 36.3442L28.6064 36.8552L22.6424 49.1542ZM45.1505 45.9972C45.1505 46.2912 45.1972 46.5058 45.2905 46.6412C45.3838 46.7718 45.5308 46.8698 45.7315 46.9352L45.4165 47.8592C45.0805 47.8172 44.7888 47.7168 44.5415 47.5582C44.2942 47.3995 44.1098 47.1568 43.9885 46.8302C43.7225 47.1708 43.3865 47.4298 42.9805 47.6072C42.5745 47.7798 42.1335 47.8662 41.6575 47.8662C40.9155 47.8662 40.3298 47.6562 39.9005 47.2362C39.4712 46.8162 39.2565 46.2632 39.2565 45.5772C39.2565 44.8072 39.5552 44.2168 40.1525 43.8062C40.7545 43.3955 41.6178 43.1902 42.7425 43.1902H43.8135V42.6302C43.8135 42.1215 43.6618 41.7598 43.3585 41.5452C43.0598 41.3305 42.6422 41.2232 42.1055 41.2232C41.8628 41.2232 41.5735 41.2535 41.2375 41.3142C40.9015 41.3748 40.5445 41.4705 40.1665 41.6012L39.8235 40.6212C40.2808 40.4485 40.7172 40.3248 41.1325 40.2502C41.5525 40.1755 41.9445 40.1382 42.3085 40.1382C43.2605 40.1382 43.9722 40.3552 44.4435 40.7892C44.9148 41.2185 45.1505 41.8088 45.1505 42.5602V45.9972ZM42.0355 46.8582C42.3808 46.8582 42.7122 46.7695 43.0295 46.5922C43.3468 46.4148 43.6082 46.1675 43.8135 45.8502V44.0652H42.8335C42.0542 44.0652 41.5012 44.1982 41.1745 44.4642C40.8478 44.7255 40.6845 45.0848 40.6845 45.5422C40.6845 45.9715 40.7965 46.2982 41.0205 46.5222C41.2445 46.7462 41.5828 46.8582 42.0355 46.8582ZM48.176 47.6912V46.6972H49.296V41.3072H48.176V40.3132H50.325L50.57 42.0422C50.85 41.4308 51.193 40.9618 51.599 40.6352C52.0097 40.3038 52.5417 40.1382 53.195 40.1382C53.4097 40.1382 53.5987 40.1545 53.762 40.1872C53.93 40.2198 54.1004 40.2618 54.273 40.3132L53.874 41.4892C53.72 41.4425 53.58 41.4098 53.454 41.3912C53.328 41.3725 53.1834 41.3632 53.02 41.3632C52.4647 41.3632 51.9887 41.5638 51.592 41.9652C51.1954 42.3665 50.878 42.9568 50.64 43.7362V46.6972H52.138V47.6912H48.176ZM53.027 42.9032V41.2092L53.181 40.3132H54.273L54.063 42.9032H53.027ZM56.5706 47.6912V46.6972H57.6906V41.3072H56.5706V40.3132H58.7196L58.9646 42.0422C59.2446 41.4308 59.5876 40.9618 59.9936 40.6352C60.4042 40.3038 60.9362 40.1382 61.5896 40.1382C61.8042 40.1382 61.9932 40.1545 62.1566 40.1872C62.3246 40.2198 62.4949 40.2618 62.6676 40.3132L62.2686 41.4892C62.1146 41.4425 61.9746 41.4098 61.8486 41.3912C61.7226 41.3725 61.5779 41.3632 61.4146 41.3632C60.8592 41.3632 60.3832 41.5638 59.9866 41.9652C59.5899 42.3665 59.2726 42.9568 59.0346 43.7362V46.6972H60.5326V47.6912H56.5706ZM61.4216 42.9032V41.2092L61.5756 40.3132H62.6676L62.4576 42.9032H61.4216ZM67.7721 40.1382C68.4768 40.1382 69.0671 40.2968 69.5431 40.6142C70.0238 40.9315 70.3854 41.3795 70.6281 41.9582C70.8754 42.5322 70.9991 43.2112 70.9991 43.9952C70.9991 44.7558 70.8731 45.4278 70.6211 46.0112C70.3738 46.5898 70.0098 47.0448 69.5291 47.3762C69.0484 47.7028 68.4581 47.8662 67.7581 47.8662C67.0581 47.8662 66.4654 47.7075 65.9801 47.3902C65.4994 47.0728 65.1354 46.6248 64.8881 46.0462C64.6408 45.4675 64.5171 44.7885 64.5171 44.0092C64.5171 43.2438 64.6408 42.5718 64.8881 41.9932C65.1401 41.4098 65.5088 40.9548 65.9941 40.6282C66.4794 40.3015 67.0721 40.1382 67.7721 40.1382ZM67.7721 41.2092C67.1654 41.2092 66.7081 41.4378 66.4001 41.8952C66.0921 42.3478 65.9381 43.0525 65.9381 44.0092C65.9381 44.9565 66.0898 45.6588 66.3931 46.1162C66.6964 46.5688 67.1514 46.7952 67.7581 46.7952C68.3648 46.7952 68.8198 46.5688 69.1231 46.1162C69.4264 45.6588 69.5781 44.9518 69.5781 43.9952C69.5781 43.0432 69.4264 42.3408 69.1231 41.8882C68.8244 41.4355 68.3741 41.2092 67.7721 41.2092ZM78.8896 47.6912H77.0976L76.1946 42.3502L75.2216 47.6912H73.4716L72.1626 40.3132H73.4996L74.3676 46.8582L75.4806 41.2512H76.9506L77.9936 46.8582L78.8616 40.3132H80.1426L78.8896 47.6912ZM84.2672 46.7952C84.8038 46.7952 85.2262 46.6972 85.5342 46.5012C85.8468 46.3052 86.0032 46.0392 86.0032 45.7032C86.0032 45.4885 85.9612 45.3042 85.8772 45.1502C85.7978 44.9962 85.6298 44.8562 85.3732 44.7302C85.1212 44.6042 84.7385 44.4758 84.2252 44.3452C83.7258 44.2192 83.2895 44.0722 82.9162 43.9042C82.5428 43.7362 82.2535 43.5168 82.0482 43.2462C81.8475 42.9755 81.7472 42.6255 81.7472 42.1962C81.7472 41.7762 81.8638 41.4122 82.0972 41.1042C82.3352 40.7962 82.6688 40.5582 83.0982 40.3902C83.5322 40.2222 84.0362 40.1382 84.6102 40.1382C85.2168 40.1382 85.7442 40.2198 86.1922 40.3832C86.6448 40.5418 87.0275 40.7378 87.3402 40.9712L86.7662 41.8462C86.4815 41.6548 86.1688 41.4985 85.8282 41.3772C85.4922 41.2558 85.0955 41.1952 84.6382 41.1952C84.0922 41.1952 83.7025 41.2792 83.4692 41.4472C83.2405 41.6105 83.1262 41.8275 83.1262 42.0982C83.1262 42.2988 83.1822 42.4668 83.2942 42.6022C83.4108 42.7328 83.6092 42.8542 83.8892 42.9662C84.1692 43.0782 84.5565 43.2018 85.0512 43.3372C85.5318 43.4678 85.9518 43.6218 86.3112 43.7992C86.6705 43.9765 86.9482 44.2098 87.1442 44.4992C87.3448 44.7838 87.4452 45.1595 87.4452 45.6262C87.4452 46.1535 87.2935 46.5828 86.9902 46.9142C86.6868 47.2408 86.2925 47.4812 85.8072 47.6352C85.3265 47.7892 84.8132 47.8662 84.2672 47.8662C83.5952 47.8662 83.0165 47.7682 82.5312 47.5722C82.0505 47.3762 81.6468 47.1358 81.3202 46.8512L82.0622 45.9972C82.3515 46.2352 82.6828 46.4288 83.0562 46.5782C83.4295 46.7228 83.8332 46.7952 84.2672 46.7952ZM104.465 47.3132C104.204 47.4812 103.889 47.6142 103.52 47.7122C103.152 47.8148 102.783 47.8662 102.414 47.8662C101.593 47.8662 100.963 47.6515 100.524 47.2222C100.09 46.7928 99.8732 46.2352 99.8732 45.5492V41.3212H98.2002V40.3132H99.8732V38.6472L101.217 38.4862V40.3132H103.737L103.583 41.3212H101.217V45.5352C101.217 45.9412 101.32 46.2468 101.525 46.4522C101.735 46.6575 102.083 46.7602 102.568 46.7602C102.844 46.7602 103.096 46.7275 103.324 46.6622C103.553 46.5968 103.765 46.5128 103.961 46.4102L104.465 47.3132ZM109.745 40.1382C110.449 40.1382 111.04 40.2968 111.516 40.6142C111.996 40.9315 112.358 41.3795 112.601 41.9582C112.848 42.5322 112.972 43.2112 112.972 43.9952C112.972 44.7558 112.846 45.4278 112.594 46.0112C112.346 46.5898 111.982 47.0448 111.502 47.3762C111.021 47.7028 110.431 47.8662 109.731 47.8662C109.031 47.8662 108.438 47.7075 107.953 47.3902C107.472 47.0728 107.108 46.6248 106.861 46.0462C106.613 45.4675 106.49 44.7885 106.49 44.0092C106.49 43.2438 106.613 42.5718 106.861 41.9932C107.113 41.4098 107.481 40.9548 107.967 40.6282C108.452 40.3015 109.045 40.1382 109.745 40.1382ZM109.745 41.2092C109.138 41.2092 108.681 41.4378 108.373 41.8952C108.065 42.3478 107.911 43.0525 107.911 44.0092C107.911 44.9565 108.062 45.6588 108.366 46.1162C108.669 46.5688 109.124 46.7952 109.731 46.7952C110.337 46.7952 110.792 46.5688 111.096 46.1162C111.399 45.6588 111.551 44.9518 111.551 43.9952C111.551 43.0432 111.399 42.3408 111.096 41.8882C110.797 41.4355 110.347 41.2092 109.745 41.2092ZM127.087 40.1382C127.74 40.1382 128.263 40.2992 128.655 40.6212C129.047 40.9385 129.329 41.3865 129.502 41.9652C129.674 42.5392 129.761 43.2158 129.761 43.9952C129.761 44.7418 129.656 45.4068 129.446 45.9902C129.236 46.5735 128.921 47.0332 128.501 47.3692C128.081 47.7005 127.553 47.8662 126.919 47.8662C126.121 47.8662 125.481 47.5862 125.001 47.0262V50.5192L123.657 50.6802V40.3132H124.812L124.91 41.3072C125.185 40.9292 125.509 40.6398 125.883 40.4392C126.256 40.2385 126.657 40.1382 127.087 40.1382ZM126.744 41.1952C126.361 41.1952 126.023 41.3118 125.729 41.5452C125.435 41.7738 125.192 42.0352 125.001 42.3292V45.8992C125.187 46.1745 125.416 46.3915 125.687 46.5502C125.957 46.7042 126.258 46.7812 126.59 46.7812C127.168 46.7812 127.605 46.5572 127.899 46.1092C128.193 45.6565 128.34 44.9518 128.34 43.9952C128.34 43.3558 128.281 42.8308 128.165 42.4202C128.048 42.0048 127.871 41.6968 127.633 41.4962C127.399 41.2955 127.103 41.1952 126.744 41.1952ZM135.082 37.3452V45.7872C135.082 46.1418 135.192 46.3938 135.411 46.5432C135.631 46.6878 135.913 46.7602 136.258 46.7602C136.478 46.7602 136.685 46.7368 136.881 46.6902C137.077 46.6435 137.273 46.5828 137.469 46.5082L137.819 47.4672C137.614 47.5698 137.357 47.6608 137.049 47.7402C136.741 47.8242 136.394 47.8662 136.006 47.8662C135.316 47.8662 134.765 47.6725 134.354 47.2852C133.944 46.8978 133.738 46.3658 133.738 45.6892V38.3672H131.491V37.3452H135.082ZM145.885 45.9972C145.885 46.2912 145.932 46.5058 146.025 46.6412C146.118 46.7718 146.265 46.8698 146.466 46.9352L146.151 47.8592C145.815 47.8172 145.523 47.7168 145.276 47.5582C145.029 47.3995 144.844 47.1568 144.723 46.8302C144.457 47.1708 144.121 47.4298 143.715 47.6072C143.309 47.7798 142.868 47.8662 142.392 47.8662C141.65 47.8662 141.064 47.6562 140.635 47.2362C140.206 46.8162 139.991 46.2632 139.991 45.5772C139.991 44.8072 140.29 44.2168 140.887 43.8062C141.489 43.3955 142.352 43.1902 143.477 43.1902H144.548V42.6302C144.548 42.1215 144.396 41.7598 144.093 41.5452C143.794 41.3305 143.377 41.2232 142.84 41.2232C142.597 41.2232 142.308 41.2535 141.972 41.3142C141.636 41.3748 141.279 41.4705 140.901 41.6012L140.558 40.6212C141.015 40.4485 141.452 40.3248 141.867 40.2502C142.287 40.1755 142.679 40.1382 143.043 40.1382C143.995 40.1382 144.707 40.3552 145.178 40.7892C145.649 41.2185 145.885 41.8088 145.885 42.5602V45.9972ZM142.77 46.8582C143.115 46.8582 143.447 46.7695 143.764 46.5922C144.081 46.4148 144.343 46.1675 144.548 45.8502V44.0652H143.568C142.789 44.0652 142.236 44.1982 141.909 44.4642C141.582 44.7255 141.419 45.0848 141.419 45.5422C141.419 45.9715 141.531 46.2982 141.755 46.5222C141.979 46.7462 142.317 46.8582 142.77 46.8582ZM155.119 40.3132L152.543 47.7332C152.366 48.2558 152.137 48.7272 151.857 49.1472C151.577 49.5672 151.216 49.9102 150.772 50.1762C150.334 50.4468 149.781 50.6148 149.113 50.6802L148.924 49.6372C149.428 49.5578 149.827 49.4365 150.121 49.2732C150.42 49.1098 150.653 48.8975 150.821 48.6362C150.994 48.3748 151.148 48.0598 151.283 47.6912H150.828L148.287 40.3132H149.722L151.731 46.7112L153.733 40.3132H155.119Z" fill="white"/>
</svg>
